<?xml version="1.0" encoding="UTF-8" standalone="no"?>
<svg xmlns="http://www.w3.org/2000/svg">
    <symbol 
        id="logo-symbol"
        viewBox="0 0 50 50"
    >
        <g transform="translate(-16.5128,-12.268024)">
            <path
                fill="currentColor"
                d="M 41.115433,16.532363 C 30.977973,16.458313 25.784585,28.674774 25.784585,28.674774 h -7.5861 v 17.851624 h 7.5861 c 0,0 5.193388,12.209649 15.330848,12.141895 10.137534,-0.07405 17.528645,-12.111406 17.528645,-12.111406 l -13.759883,0.151929 -6.13916,-9.107971 6.13916,-9.107972 13.759883,0.150896 c 0,0 -7.391111,-12.03711 -17.528645,-12.111406 z m -0.322978,1.804024 c 9.031163,0.06627 14.049788,8.724533 14.049788,8.724533 L 43.415551,26.927594 35.96846,37.591543 42.640404,48.380548 54.898571,48.24774 c 0,0 -5.60567,8.477366 -14.636833,8.551416 C 31.230649,56.85963 27.335395,44.63039 27.335395,44.63039 h -7.745263 v -2.259294 l 3.207039,0.0016 c 1.574612,0 2.015381,-0.620499 2.015381,-1.390612 v -6.926709 c 0,-0.770731 -0.440744,-1.390096 -2.015381,-1.390096 h -3.207039 v -2.335258 h 7.745263 c 0,0 4.425958,-12.067633 13.45706,-11.993584 z" />
            <path
                fill="currentColor"
                d="m 20.002474,42.718481 v 1.121184 l 7.846246,-0.01277 c 0,0 3.26264,12.397882 12.293738,12.337408 9.031172,-0.07405 13.697375,-7.416985 13.697375,-7.416985 l -11.527475,0.17392 -7.051211,-11.329445 7.713386,-11.100648 10.581643,0.133289 c 0,0 -3.762466,-7.610555 -12.793638,-7.676829 C 31.731427,18.873555 27.84872,30.850342 27.84872,30.850342 l -7.846246,0.01277 v 1.27789 H 22.797 c 1.574639,0 2.469341,0.619547 2.469341,1.390278 v 7.798035 c 0,0.770114 -0.894727,1.390401 -2.469341,1.390401 z"
            />
            <path
                fill="currentColor"
                d="m 50.386842,29.324977 -5.580021,8.275463 5.580021,8.275464 h 8.993766 l 5.580538,-8.275464 -5.580538,-8.275463 z m 4.496883,1.213879 a 6.8247352,7.0615893 0 0 1 6.824907,7.061584 6.8247352,7.0615893 0 0 1 -6.824907,7.061585 6.8247352,7.0615893 0 0 1 -6.824906,-7.061585 6.8247352,7.0615893 0 0 1 6.824906,-7.061584 z" 
            />
            <path
                fill="currentColor"
                d="m 54.883725,31.45818 a 6.0493624,6.1422414 0 0 0 -6.049243,6.14226 6.0493624,6.1422414 0 0 0 6.049243,6.142261 6.0493624,6.1422414 0 0 0 6.04976,-6.142261 6.0493624,6.1422414 0 0 0 -6.04976,-6.14226 z m 0,1.905827 a 4.0944157,4.2365135 0 0 1 4.094841,4.236433 4.0944157,4.2365135 0 0 1 -4.094841,4.236434 4.0944157,4.2365135 0 0 1 -4.094323,-4.236434 4.0944157,4.2365135 0 0 1 4.094323,-4.236433 z" 
            />
        </g>

    </symbol>
</svg>
