<?xml version="1.0" encoding="UTF-8" standalone="no"?>
<svg xmlns="http://www.w3.org/2000/svg" viewBox="0 0 100 30" width="100" height="30">

  <symbol id="user" viewBox="0 0 10 10">
  <g
     id="layer1"
     transform="translate(-101.07098,-144.08093)">
    <g
       id="user"
       transform="matrix(1.2525748,0,0,1.0222178,83.099952,1.4801389)">
      <path
         stroke="none" stroke-width="0.22" fill="currentColor"
         d="m 16.500472,141.74581 c -0.01484,-0.82151 0.521492,-1.43026 1.026092,-1.64489 l 0.147311,0.88341 c 0.08331,0.21474 0.30595,0.18428 0.317029,-0.0539 l -0.178598,-0.99318 c 0.02527,-0.0512 0.06593,-0.10233 0.173219,-0.15349 l 0.725142,-0.006 c 0.137705,0.0156 0.197859,0.0825 0.244467,0.15849 l -0.200661,1.05345 c -0.02823,0.12091 0.172155,0.22609 0.291486,0.0793 l 0.163573,-1.00962 c 0.643698,0.39558 1.046951,0.85649 1.017091,1.68639 h 0.178954 c 0.23995,0.0935 0.285911,0.43148 0,0.55004 l -4.030274,-0.003 c -0.323154,-0.0805 -0.365625,-0.46118 0,-0.54752 z"
         id="path54355" />
      <path
         stroke="none" stroke-width="0.22" fill="currentColor"
         d="m 16.649851,142.40165 h 3.42391 c 0.0091,0.003 -0.06802,0.64841 -0.294539,0.73758 3.5e-4,0.27487 -0.332286,0.72606 -0.435757,0.75099 0,0 0.0128,0.11267 0,0.1736 -0.142752,0.6791 -0.934929,1.10848 -0.965389,1.03 -0.581692,-0.12376 -0.797385,-0.58974 -1.018779,-1.03 v -0.1736 c -0.04588,0.0454 -0.390051,-0.52241 -0.433785,-0.75099 -0.120539,0.0198 -0.311805,-0.66617 -0.275572,-0.73758 z"
         id="path54777" />
      <path
         stroke="none" stroke-width="0.22" fill="currentColor"
         d="m 16.210045,148.42674 -0.727264,-0.008 c 0,0 0.390668,0.63599 0.926474,0.63992 0.535807,0.004 0.810291,-0.64155 0.810291,-0.64155 h 1.140412 1.140412 c 0,0 0.274484,0.64513 0.810289,0.64155 0.535808,-0.004 0.926475,-0.63992 0.926475,-0.63992 l -0.727262,0.008 -0.324494,-0.48123 0.324494,-0.48122 0.727262,0.008 c 0,0 -0.390667,-0.636 -0.926475,-0.63992 -0.535805,-0.004 -0.810289,0.64154 -0.810289,0.64154 h -1.140412 -1.140412 c 0,0 -0.274484,-0.64546 -0.810291,-0.64154 -0.535806,0.004 -0.926474,0.63992 -0.926474,0.63992 l 0.727264,-0.008 0.324491,0.48122 z" />
      <g
         transform="matrix(0.83787861,0,0,0.83787861,-37.246863,46.759598)">
        <path
           stroke="none" stroke-width="0.26" fill="currentColor"
           d="m 65.037877,116.15262 c -0.277037,0.28617 -1.704679,0.70488 -2.191959,1.07727 -0.487278,0.37239 -1.05746,2.15322 -0.963988,2.46739 0.09347,0.31418 0.603718,0.52409 0.603718,0.52409 0,0 0.64611,-1.07855 1.443633,-1.08209 0.797523,-0.004 1.415299,0.66763 1.415299,0.66763 l 0.513677,-0.0241 c 0,0 0.07659,-1.37313 0.256342,-1.80241 0.17975,-0.42928 -0.240625,-0.47339 -0.240625,-0.47339 l -0.35114,0.0157 z"
           id="path1096" />
        <path
           stroke="none" stroke-width="0.26" fill="currentColor"
           d="m 67.694526,116.13603 c 0.277037,0.28617 1.704679,0.70488 2.191959,1.07727 0.487278,0.37239 1.05746,2.15322 0.963988,2.46739 -0.09347,0.31418 -0.603718,0.52409 -0.603718,0.52409 0,0 -0.64611,-1.07855 -1.443633,-1.08209 -0.797523,-0.004 -1.415299,0.66763 -1.415299,0.66763 l -0.513677,-0.0241 c 0,0 -0.07659,-1.37313 -0.256342,-1.80241 -0.17975,-0.42928 0.240625,-0.47339 0.240625,-0.47339 l 0.35114,0.0157 z"
           id="path1694" />
      </g>
    </g>
  </g>
  </symbol>


  <symbol id="company" viewBox="0 0 10 10">
  <g transform="translate(-101.07098,-144.08093)">
    <g
       id="g1452"
       transform="matrix(1.0846259,0,0,1.0663344,79.962425,104.02335)">
      <g
         id="g32541"
         transform="matrix(0.99323489,0,0,0.84664936,-28.8826,-92.903111)">
        <rect
           fill="currentColor"
           width="1.3331652"
           height="1.2976251"
           x="50.220421"
           y="155.5363" />
        <rect
           fill="currentColor"
           width="1.3331652"
           height="1.2976251"
           x="50.220421"
           y="157.409" />
        <rect
           fill="currentColor"
           width="1.3331652"
           height="1.2976251"
           x="50.220421"
           y="159.28171" />
        <rect
           fill="currentColor"
           width="1.3331652"
           height="1.2976251"
           x="50.220421"
           y="161.1544" />
      </g>
      <g
         id="g32576"
         transform="matrix(0.99323489,0,0,0.84664936,-25.821964,-92.04407)">
        <rect
           fill="currentColor"
           width="1.3331652"
           height="1.2976251"
           x="50.220421"
           y="155.5363" />
        <rect
           fill="currentColor"
           width="1.3331652"
           height="1.2976251"
           x="50.220421"
           y="157.409" />
        <rect
           fill="currentColor"
           width="1.3331652"
           height="1.2976251"
           x="50.220421"
           y="159.28171" />
        <rect
           fill="currentColor"
           width="1.3331652"
           height="1.2976251"
           x="50.220421"
           y="161.1544" />
      </g>
      <g
         id="g32586"
         transform="matrix(0.99323489,0,0,0.84664936,-23.998434,-92.04407)">
        <rect
           fill="currentColor"
           width="1.3331652"
           height="1.2976251"
           x="50.220421"
           y="155.5363" />
        <rect
           fill="currentColor"
           width="1.3331652"
           height="1.2976251"
           x="50.220421"
           y="157.409" />
        <rect
           fill="currentColor"
           width="1.3331652"
           height="1.2976251"
           x="50.220421"
           y="159.28171" />
        <rect
           fill="currentColor"
           width="1.3331652"
           height="1.2976251"
           x="50.220421"
           y="161.1544" />
      </g>
      <path
         stroke="currentColor" fill="none" stroke-width="0.54"
         d="m 24.03232,39.020662 h 3.191729 c 0.455182,0 0.821629,0.356202 0.821629,0.798661 v 6.499828 h -4.834986 v -6.499828 c 0,-0.442459 0.366447,-0.798661 0.821628,-0.798661 z" />
      <path
         stroke="currentColor" fill="none" stroke-width="0.54"
         d="m 23.184331,45.418906 h -3.112699 v -6.452392 c 0,-0.442459 0.366447,-0.798661 0.821628,-0.798661 h 3.191729 c 0.455182,0 0.939635,0.372229 0.821629,0.798661" />
    </g>
  </g>
  </symbol>


  <symbol id="unit" viewBox="0 0 10 10">
  <g transform="translate(-101.07098,-144.08093)">
    <path
       fill="currentColor" stroke="currentColor" stroke-width="0.22"
       d="m 102.80929,144.66266 -1.15679,0.0291 v 8.72138 h 8.74317 v -4.34202 l -0.32359,-1.89457 -2.20504,1.89457 -0.32155,-1.89457 -2.20706,1.89457 -0.31952,-1.89457 -2.20962,1.89457 z m 0.60948,5.22629 h 1.14047 c 0.21832,0 0.39393,0.17873 0.39393,0.4009 v 1.0544 c 0,0.22217 -0.17561,0.4009 -0.39393,0.4009 h -1.14047 c -0.21832,0 -0.39392,-0.17873 -0.39392,-0.4009 v -1.0544 c 0,-0.22217 0.1756,-0.4009 0.39392,-0.4009 z m 2.30491,0 h 1.14048 c 0.21831,0 0.39391,0.17873 0.39391,0.4009 v 1.0544 c 0,0.22217 -0.1756,0.4009 -0.39391,0.4009 h -1.14048 c -0.21831,0 -0.39392,-0.17873 -0.39392,-0.4009 v -1.0544 c 0,-0.22217 0.17561,-0.4009 0.39392,-0.4009 z m 2.3049,0.0114 h 1.14049 c 0.2183,0 0.39392,0.17872 0.39392,0.4009 v 1.05439 c 0,0.22218 -0.17562,0.4009 -0.39392,0.4009 h -1.14049 c -0.2183,0 -0.39391,-0.17872 -0.39391,-0.4009 v -1.05439 c 0,-0.22218 0.17561,-0.4009 0.39391,-0.4009 z" />
  </g>
  </symbol>

  <symbol id="section" viewBox="0 0 10 10">
  <g
     transform="translate(-101.07098,-144.08093)">
    <g
       transform="matrix(0.96450484,0,0,0.9958923,63.466964,107.1799)">
      <path
         fill="none" stroke="currentColor" stroke-width="0.35"
         d="m 39.546227,45.364791 c 0,0.847156 0.644897,1.17415 1.287644,1.17415 h 7.868511 V 39.020233 H 41.22585"
         />
      <path
         fill="none" stroke="currentColor" stroke-width="0.35"
         d="m 41.225968,37.523428 v 6.314121 c -0.839266,-0.141179 -1.673035,0.423693 -1.673035,1.440426 l -0.03355,-6.560474 c 0.01446,-0.925664 0.838704,-1.378334 1.706582,-1.194073 z"
         />
      <path
         fill="currentColor" stroke="currentColor" stroke-width="0.35"
         d="m 43.60675,44.302802 h 0.448552 v 0.728326 h 1.258579 V 44.63197 h 0.414327 v 0.399158 h 1.427581 v -4.736381 h -1.394771 v 3.130987 h -0.468722 v -0.344418 h -0.523409 v -0.324714 h 0.50825 v -2.461855 h -2.995928 v 2.461855 h 1.671527 v 0.324714 h -1.644905 v 1.949812 h 0.426655 v 0.440886 h -0.813375 v -5.54018 h 5.661685 l 0.03244,5.54018 H 43.60681 Z" />
    </g>
  </g>

  </symbol>

  <symbol id="equipment" viewBox="0 0 10 10">
  <g
     transform="translate(-101.07098,-144.08093)">
    <g
       transform="matrix(0.96121655,0,0,0.98722325,53.973783,107.59461)">
      <path
         fill="currentColor" stroke="currentColor" stroke-width="0.58"
         d="m 50.411645,45.8813 h 0.345541 c -0.01383,-0.217691 0.09822,-0.534902 0.439293,-0.522237 h 5.88452 c 0.246341,0 0.46605,0.324587 0.46605,0.522237 h 0.241608 v 0.883593 h -7.377012 z" />
      <path
         fill="none" stroke="currentColor" stroke-width="0.50"
         d="m 51.743337,44.938213 h 4.715419 c 0,-1.477861 -0.728523,-2.583172 -2.261329,-2.583172 -1.878396,0 -2.43674,1.197267 -2.45409,2.583172 z"
         />
      <rect
         fill="currentColor" stroke="none"
         width="0.50749016"
         height="1.0082092"
         x="69.818306"
         y="46.191093"
         transform="matrix(1,0,-0.34204593,0.93968324,0,0)" />
      <path
         fill="currentColor" stroke="currentColor" stroke-width="0.27"
         d="m 50.829222,37.436935 c -1.230376,0.01629 -2.246539,2.10893 -0.269751,2.737817 0.21643,0.867319 -0.81606,2.388584 0.958871,3.245829 0.393842,-0.983566 1.146136,-1.438203 2.014031,-1.532828 l -0.35394,-0.849488 c 0,0 -0.605659,0.07902 -0.903304,-0.151929 -0.29765,-0.230937 0.08475,-0.560172 0.08475,-0.560172 l 3.825089,0.668693 c 0.140961,0.588885 0.428558,0.822067 0.946196,0.885217 l 0.321944,1.350822 c 0.08036,0.337356 0.586011,0.268201 0.586011,0.268201 l 0.226343,1.16427 0.2682,-0.02894 c 0,0 -0.259986,-1.170585 -0.173116,-1.227315 0.08687,-0.05673 0.239779,-0.340548 0.239779,-0.340548 0.02428,-0.0013 -0.10428,-1.288877 -0.205672,-1.629875 0.870721,-0.991912 0.06895,-2.368963 -1.381828,-2.036568 l -5.867859,-1.920296 c -0.105652,-0.0306 -0.211474,-0.04427 -0.315743,-0.04289 z m 0.0279,0.734838 c 0.3443,5.7e-5 0.623342,0.255036 0.623218,0.569475 1.24e-4,0.314438 -0.278919,0.569417 -0.623218,0.569474 -0.344299,-5.7e-5 -0.623341,-0.255036 -0.623217,-0.569474 -1.24e-4,-0.314438 0.278918,-0.569418 0.623217,-0.569475 z m 6.603732,1.896526 c 0.344299,5.7e-5 0.623341,0.255036 0.623217,0.569474 -1.89e-4,0.314236 -0.279139,0.5689 -0.623217,0.568957 -0.344078,-5.7e-5 -0.623029,-0.25472 -0.623218,-0.568957 -1.24e-4,-0.314438 0.278919,-0.569417 0.623218,-0.569474 z" />
    </g>
  </g>
  </symbol>

  <symbol id="category" viewBox="0 0 10 10">
  <g transform="translate(-101.07098,-144.08093)">
    <g transform="matrix(1.0766391,0,0,0.93434359,90.229384,100.68701)">
      <rect
         stroke="currentColor" stroke-width="0.6" fill="none"
         width="7.5700755"
         height="8.7709103"
         x="11.042305"
         y="47.498875" />
      <path
         stroke="currentColor" stroke-width="0.37" fill="currentColor"
         d="m 12.327224,48.53447 h 2.143333 v 2.662296 h -2.143333 z" />
      <ellipse
         stroke="currentColor" stroke-width="0.37" fill="currentColor"
         cx="16.76087"
         cy="49.86562"
         rx="1.1166009"
         ry="1.3620554" />
      <path
         stroke="currentColor" stroke-width="0.37" fill="currentColor"
         d="m 70.589108,187.73274 -1.095543,-0.18517 -0.773621,0.7975 -0.162432,-1.09914 -0.997535,-0.48932 0.995155,-0.49413 0.15711,-1.09992 0.777472,0.79375 1.094634,-0.19047 -0.514651,0.9847 z"
         transform="matrix(0.84083149,0,0,0.94689992,-44.681163,-122.9598)" />
      <path
         stroke="currentColor" stroke-width="0.37" fill="currentColor"
         d="m 15.613154,55.045357 1.123059,-2.335989 1.172375,2.335989 z"
         />
    </g>
  </g>
  </symbol>

  <symbol id="subcategory" viewBox="0 0 10 10">
  <g transform="translate(-101.07098,-144.08093)">
    <g transform="matrix(1.0791371,0,0,0.93426667,79.896671,100.52375)">
      <path
         stroke="currentColor" stroke-width="0.37" fill="currentColor"
         d="m 70.589108,187.73274 -1.095543,-0.18517 -0.773621,0.7975 -0.162432,-1.09914 -0.997535,-0.48932 0.995155,-0.49413 0.15711,-1.09992 0.777472,0.79375 1.094634,-0.19047 -0.514651,0.9847 z"
         transform="matrix(0.85968753,0,0,0.82604883,-36.680865,-100.55106)" />
      <path
         stroke="currentColor" stroke-width="0.37" fill="currentColor"
         d="m 70.414779,188.04665 -0.638387,-0.9437 -1.40887,1.17333 0.700244,-0.89876 -1.551269,-0.97734 1.071162,0.38824 0.450133,-1.77736 -0.03823,1.13871 1.829466,-0.12113 -1.094788,0.31552 z"
         transform="matrix(0.86073345,0,0,0.82705382,-36.837643,-104.56188)" />
      <path
         stroke="currentColor" stroke-width="0.37" fill="currentColor"
         d="m 70.589108,187.73274 -1.309927,-0.63169 -0.559237,1.24402 0.195984,-1.44102 -1.355951,-0.14744 1.431052,-0.2589 -0.278787,-1.33515 0.688455,1.281 1.183651,-0.67772 -1.005564,1.05061 z"
         transform="matrix(0.87575281,0,0,0.84148549,-34.611507,-107.34812)" />
      <path
         stroke="currentColor" stroke-width="0.37" fill="currentColor"
         d="m 70.589108,187.73274 -1.614544,-0.25381 -0.25462,0.86614 -0.257531,-1.61395 -0.902436,0.0255 1.455381,-0.74366 -0.303116,-0.85039 1.157006,1.15434 0.7151,-0.55106 -0.740313,1.45709 z"
         transform="matrix(0.8015597,0.26335558,-0.2410199,0.77019547,15.407921,-108.22733)" />
      <rect
         stroke="currentColor" stroke-width="0.6" fill="none"
         width="7.5700755"
         height="8.7709103"
         x="20.493071"
         y="47.498875" />
    </g>
  </g>
  </symbol>


  <symbol id="article" viewBox="0 0 10 10">
  <g transform="translate(-101.07098,-144.08093)">
    <path
       fill="currentColor" stroke="currentColor" stroke-width="0.34"
       d="m 107.47628,144.54135 -2.70338,2.71227 0.84512,0.84814 -0.19491,0.73087 -1.19484,1.19835 c -0.37276,-0.37433 -1.3428,-0.24512 -1.66436,0.0774 l -0.31876,-0.31921 -0.49032,0.49173 0.31825,0.31972 c -0.77073,0.7732 -0.41546,1.95353 0.14111,2.51186 0.55657,0.55834 1.56687,0.67331 2.30035,-0.0625 l 0.30861,0.30939 0.49032,-0.49224 -0.30809,-0.3094 c 0.3246,-0.32564 0.39637,-1.3494 0.0604,-1.68645 l 1.26285,-1.26704 c 0.0872,-0.17597 0.40328,-0.12234 0.64565,-0.14256 l 0.86695,0.86983 2.70337,-2.71227 z m -0.0679,0.16561 2.91468,2.98777 -0.46393,0.47159 -2.91468,-2.98777 z m -0.52345,0.55598 2.91469,2.98777 -0.46393,0.47158 -2.91469,-2.98776 z m 0.0781,2.35742 c 0.14548,-6e-5 0.28498,0.0579 0.3878,0.16115 0.21398,0.21467 0.21398,0.5627 0,0.77736 -0.21401,0.21478 -0.56107,0.21478 -0.77508,0 -0.21396,-0.21466 -0.21396,-0.56269 0,-0.77736 0.1027,-0.1031 0.242,-0.16107 0.38728,-0.16115 z m -3.50635,3.0728 c 0.26291,4e-5 0.51504,0.10483 0.70096,0.29132 0.38738,0.3885 0.38738,1.01851 0,1.40701 -0.38726,0.38855 -1.01519,0.38855 -1.40244,0 -0.38739,-0.3885 -0.38739,-1.01851 0,-1.40701 0.18604,-0.18661 0.43838,-0.29141 0.70148,-0.29132 z" />
  </g>
  </symbol>

  <symbol id="add" viewBox="0 0 10 10">
  <g transform="translate(-101.07098,-144.08093)">
    <g transform="translate(52.027024,97.207926)">
      <ellipse
         stroke="currentColor" stroke-width="0.7" fill="none"
         cx="54.053547"
         cy="51.927177"
         rx="3.9385011"
         ry="3.9761231" />
      <g transform="matrix(0.85079768,0,0,0.85892478,32.801093,-110.214)">
        <path
           stroke="currentColor" stroke-width="1.6" fill="none"
           stroke-linecap="round"
           d="m 22.715116,188.77226 h 4.528659"
           />
        <path
           stroke-linecap="round"
           stroke="currentColor" stroke-width="1.6" fill="none"
           d="m 24.979445,191.03659 v -4.52866"
           />
      </g>
    </g>
  </g>
  </symbol>

  <symbol id="remove" viewBox="0 0 10 10">
  <g transform="translate(-101.07098,-144.08093)">
    <g transform="translate(42.011727,97.200974)">
      <ellipse
         stroke="currentColor" stroke-width="0.7" fill="none"
         cx="64.080711"
         cy="51.927177"
         rx="3.9385011"
         ry="3.9761231" />
      <path
         stroke-linecap="round"
         stroke="currentColor" stroke-width="1.2" fill="none"
         d="M 62.154227,51.927172 H 66.0072"
         id="path1826" />
    </g>
  </g>
  </symbol>


  <symbol id="create" viewBox="0 0 10 10">
  <g
     transform="translate(-101.07098,-144.08093)">
    <g
       transform="translate(71.937447,97.185426)">
      <path
         fill="none" stroke="currentColor" stroke-width="0.66"
         d="m 31.601586,47.837817 h 4.014057 l 2.498401,2.18926 v 4.679886 c 0,0.718476 -0.66008,1.29688 -1.479997,1.29688 h -5.032461 c -0.819918,0 -1.479998,-0.578404 -1.479998,-1.29688 v -5.572287 c 0,-0.718444 0.66008,-1.296859 1.479998,-1.296859 z" />
      <path
         fill="none" stroke="currentColor" stroke-width="0.66"
         d="m 35.080854,47.740685 v 1.504178 c 0.02509,0.890572 0.606597,1.199562 1.392979,1.294471 h 1.732675"
         />
      <path
         fill="none" stroke="currentColor" stroke-width="1.05" stroke-linecap="round"
         d="m 32.187311,51.967562 h 3.339382"
         />
      <path
         fill="none" stroke="currentColor" stroke-width="1.05" stroke-linecap="round"
         d="M 33.856996,53.430658 V 50.504465"
         />
    </g>
  </g>
  </symbol>

  <symbol id="delete" viewBox="0 0 10 10">
  <g
     transform="translate(-101.07098,-144.08093)">
    <g
       transform="translate(62.100352,97.308043)">
      <path
         fill="none" stroke="currentColor" stroke-width="0.7"
         d="m 42.553217,50.931051 v 4.392492"
         />
      <path
         fill="none" stroke="currentColor" stroke-width="0.7"
         d="m 44.074071,50.931051 v 4.392492"
         />
      <path
         fill="none" stroke="currentColor" stroke-width="0.7"
         d="m 45.594926,50.931051 v 4.392492"
         />
      <path
         fill="none" stroke="currentColor" stroke-width="0.7"
         d="m 40.705651,50.306316 v 5.206894 c 0,0.262955 0.255035,0.474668 0.571839,0.474668 h 5.452536 c 0.316791,0 0.571838,-0.211713 0.571838,-0.474668 v -5.206894 m -4.947163,-1.316389 v -0.924001 c 0.1154,-0.207157 0.221068,-0.460189 0.824525,-0.420809 h 1.649063 c 0.558917,0.01928 0.687766,0.221772 0.824525,0.420809 v 0.924001" />
      <rect
         fill="none" stroke="currentColor" stroke-width="0.7"
         width="7.9327826"
         height="0.89988029"
         x="40.090866"
         y="49.039265"
         ry="0.44994015" />
    </g>
  </g>
  </symbol>

  <symbol id="validate" viewBox="0 0 10 10">
  <g transform="translate(-101.07098,-144.08093)">
    <path
       fill="none" stroke="currentColor" stroke-width="1.4" stroke-linecap="round" stroke-linejoin="round"
       d="m 102.44899,149.02077 3.17342,3.77072 3.94431,-7.36025"
       id="path44629" />
  </g>
  </symbol>

  <symbol id="cancel" viewBox="0 0 10 10">
  <g transform="translate(-101.07098,-144.08093)">
    <g transform="matrix(0.99705894,0,0,1.0392961,-18.635977,20.531487)">
      <path
         fill="none" stroke="currentColor" stroke-width="1.4" stroke-linecap="round" stroke-linejoin="round"
         d="m 121.45424,127.36012 7.11597,-7.38153"
         />
      <path
         fill="none" stroke="currentColor" stroke-width="1.4" stroke-linecap="round" stroke-linejoin="round"
         d="m 121.32146,120.11137 7.38153,7.11597"
         />
    </g>
  </g>
  </symbol>

  <symbol id="display" viewBox="0 0 10 10">
  <g transform="translate(-101.07098,-144.08093)">
    <path
       fill="currentColor" stroke="none"
       d="m 106.07872,146.34532 a 1.604084,2.409367 0 0 0 -1.60405,2.4093 1.604084,2.409367 0 0 0 1.60405,2.4093 1.604084,2.409367 0 0 0 1.60404,-2.4093 1.604084,2.409367 0 0 0 -1.60404,-2.4093 z m -0.0306,0.73278 c 0.0275,3.2e-4 0.0514,0.007 0.0709,0.0163 0.15592,0.0859 0.1401,0.30925 0.0407,0.39205 -0.0994,0.0828 -0.38551,0.0301 -0.61781,0.39622 -0.23232,0.36615 -0.27359,0.83925 -0.32064,1.0009 -0.0471,0.16163 -0.21504,0.1817 -0.24531,-0.041 -0.0303,-0.22274 0.0825,-0.89654 0.32439,-1.25972 0.19328,-0.27376 0.55572,-0.50811 0.74776,-0.50486 z m 0.0937,-2.06527 c -1.66997,-0.0149 -3.39567,1.15979 -4.57412,3.78149 2.31938,5.26789 7.08336,4.82977 8.99051,0 -0.92415,-2.40156 -2.63871,-3.76558 -4.41639,-3.78149 z m -0.0578,1.23282 c 1.33469,-0.02 2.63287,0.88244 3.41159,2.59288 -1.8225,3.51296 -5.0822,3.33285 -6.86929,0 0.91792,-1.74144 2.2039,-2.57415 3.4577,-2.59288 z" />
  </g>
  </symbol>


  <symbol id="edit" viewBox="0 0 10 10">
  <g transform="translate(-101.07098,-144.08093)">
    <g transform="matrix(0.9250879,0,0,0.9103621,9.8782701,101.57216)">
      <path
         fill="none" stroke="currentColor" stroke-width="0.38"
         d="m 105.66109,47.993989 2.41075,2.402815 0.54421,-0.542417 c 0.50602,-1.03353 -1.2166,-2.817554 -2.40506,-2.397134 z"
         />
      <path
         fill="none" stroke="currentColor" stroke-width="0.38"
         d="m 100.321,53.605937 -0.683854,2.749839 2.717944,-0.667381 c -0.31588,-0.221024 -0.22527,-0.554013 -0.22527,-0.554013 0,0 -0.56214,0.134923 -0.9468,-0.248471 -0.38467,-0.383395 -0.32118,-1.015324 -0.32118,-1.015324 0,0 -0.36177,0.04541 -0.54084,-0.26465 z"
         />
      <path
         fill="currentColor" stroke="none" stroke-width="0.43"
         d="m 106.03191,49.172495 0.81556,0.812876 -4.51222,4.497365 c 0,0 -0.392,0.342863 -0.77578,-0.0396 -0.38382,-0.382539 -0.0398,-0.773231 -0.0398,-0.773231 z" />
      <path
         fill="currentColor" stroke="none" stroke-width="0.46"
         d="m 107.32353,50.459862 0.42972,0.428319 -4.51221,4.497355 c 0,0 -0.20204,0.13431 -0.38494,-0.04794 -0.18286,-0.182267 -0.0448,-0.380343 -0.0448,-0.380343 z" />
      <path
         fill="currentColor" stroke="none" stroke-width="0.46"
         d="m 105.13074,48.27429 0.42972,0.428319 -4.51222,4.497355 c 0,0 -0.20203,0.13431 -0.38493,-0.04795 -0.18286,-0.182266 -0.0448,-0.380342 -0.0448,-0.380342 z" />
    </g>
  </g>
  </symbol>

  <symbol id="erase" viewBox="0 0 10 10">
  <g transform="translate(-101.07098,-144.08093)">
    <g transform="matrix(1.0387999,0,0,1.2302939,-40.117528,-137.35798)" >
      <g transform="rotate(-45,137.52326,231.16991)">
        <path
           fill="currentColor" stroke="currentColor" stroke-width="0.36"
           d="m 140.57973,233.12959 h 1.2606 c 0.41215,0 0.74396,0.32805 0.74396,0.73554 v 2.38664 c 0,0.40749 -0.33181,0.73554 -0.74396,0.73554 h -1.2606 z" />
        <path
           fill="none" stroke="currentColor" stroke-width="0.36"
           d="m 136.15139,233.12145 h 3.90953 v 3.85202 h -3.38036 l -1.29757,-1.26362 v -1.85395 c 0,-0.40688 0.34271,-0.73445 0.7684,-0.73445 z" />
      </g>
      <path
         fill="none" stroke="currentColor" stroke-width="0.36"
         d="m 137.85271,236.28862 h 4.6841"
         />
      <path
         fill="none" stroke="currentColor" stroke-width="0.26"
         d="m 136.56668,235.6025 h 1.5257"
         />
    </g>
  </g>
  </symbol>

  <symbol id="intervention" viewBox="0 0 10 10">
  <g transform="translate(-101.07098,-144.08093)">
    <g transform="matrix(1.2400659,0,0,1.0824453,15.803655,106.01956)">
      <path
         fill="currentColor" stroke="currentColor" stroke-width="0.18"
         d="m 74.963729,39.5642 1.311689,0.007 v 0.8494 h -6.77349 v -0.88506 h 0.931602 l -0.275043,-0.78027 c -0.176163,0.15232 -0.419704,0.083 -0.654163,-0.32198 -0.234458,-0.40496 -0.20624,-1.05464 -0.0747,-1.2083 0.456702,0.96355 0.574351,1.06651 0.924107,0.7878 0.349756,-0.27871 0.344984,-0.54989 -0.02998,-1.27922 0.126171,-0.16194 0.587445,0.18642 0.744522,0.58831 0.157079,0.40189 0.07992,1.06103 -0.119965,1.1673 l 0.438476,1.07201 h 0.377354 l -0.117005,-1.6063 -0.292596,0.0548 -0.11806,-0.91791 0.332422,-0.0401 -0.02503,-0.36568 0.564669,-0.0554 0.04018,0.31024 0.522607,-0.0958 0.09969,0.95348 -0.489936,0.054 0.190464,1.70661 0.206216,-0.01 0.08828,-0.42011 0.199515,-0.0178 -0.01755,-0.22555 -0.211115,-0.0737 0.05397,-0.40534 0.35394,0.0564 0.17158,-1.35134 c 0,0 -0.316811,-0.0688 -0.249239,-0.28782 0.08195,-0.26562 0.449022,-1.06287 0.449022,-1.06287 l 0.301415,0.0466 c 0,0 0.158338,0.91732 0.187676,1.15725 0.02333,0.19082 -0.322115,0.16782 -0.322115,0.16782 l -0.08676,1.38955 0.354802,0.0692 -0.01187,0.42268 -0.261516,-0.0495 -0.05811,0.20912 0.174517,0.0628 v 0.28698 h 0.4433 l 0.345486,-1.3441 c 0,0 -0.403641,-0.23331 -0.324783,-0.60955 0.07886,-0.37624 0.633825,-1.25061 0.633825,-1.25061 l 0.127795,0.0591 -0.228786,1.02057 c 0.117742,0.31842 0.286369,0.55231 0.705693,0.36979 l 0.337934,-1.07138 0.120045,0.0532 c 0,0 0.05186,1.16285 -0.05669,1.49675 -0.118527,0.36456 -0.635263,0.23433 -0.635263,0.23433 z"
         />
      <rect
         fill="currentColor" stroke="none"
         width="0.99196434"
         height="3.419584"
         x="69.766945"
         y="40.639156" />
      <rect
         fill="currentColor" stroke="none"
         width="0.99196434"
         height="3.419584"
         x="71.090019"
         y="40.639156" />
      <rect
         fill="currentColor" stroke="none"
         width="0.99196434"
         height="3.419584"
         x="72.413094"
         y="40.639156" />
      <rect
         fill="currentColor" stroke="none"
         width="0.99196434"
         height="3.419584"
         x="73.736168"
         y="40.639156" />
      <rect
         fill="currentColor" stroke="none"
         width="0.99196434"
         height="3.419584"
         x="75.059242"
         y="40.639156" />
    </g>
  </g>
  </symbol>

  <symbol id="workorder" viewBox="0 0 10 10">
  <g transform="translate(-101.07098,-144.08093)">
    <g transform="matrix(0.95347,0,0,0.90842893,25.878739,111.14563)">
      <rect
         fill="none" stroke="currentColor" stroke-width="0.74"
         width="8.7336121"
         height="7.277266"
         x="79.754982"
         y="39.120655"
         ry="0.83015823" />
      <path
         fill="currentColor" stroke="currentColor" stroke-width="0.36"
         d="m 82.6379,36.886188 c 0,0.790325 -0.928195,0.831473 -1.711007,0.831473 v 1.224215 h 6.389791 c 0,-0.191995 0,-0.383331 0,-1.224215 -1.004149,0 -1.804541,-0.05089 -1.804541,-0.831473 z m 0.549837,0.162264 h 1.938383 c 0.05707,0 0.06467,0.06088 0.103353,0.102836 0.186445,0.202244 0.155115,0.423286 0,0.65474 -0.03177,0.04741 -0.04628,0.102836 -0.103353,0.102836 h -1.938383 c -0.05707,0 -0.06536,-0.0598 -0.102836,-0.102836 -0.178354,-0.204811 -0.246624,-0.418053 0,-0.65474 0.04118,-0.03952 0.04577,-0.102836 0.102836,-0.102836 z m -1.203544,1.018025 h 4.275708 c 0.108899,0 0.196371,0.08799 0.196371,0.196888 v 0.415391 c 0,0.108899 -0.08747,0.19637 -0.196371,0.19637 h -4.275708 c -0.108899,0 -0.19637,-0.08747 -0.19637,-0.19637 v -0.415391 c 0,-0.108899 0.08747,-0.196888 0.19637,-0.196888 z" />
      <g transform="matrix(0.96706042,0,0,0.73523781,31.132229,-79.522952)">
        <ellipse
           fill="currentColor" stroke="none"
           cx="52.086891"
           cy="163.76259"
           rx="0.64248776"
           ry="0.59949219" />
        <path
           fill="none" stroke="currentColor" stroke-width="0.46"
           d="m 53.171086,163.89301 c 0.295103,-0.12695 0.616669,0.12803 0.911288,0 0.07807,-0.57402 0.772096,-0.52023 0.911289,0 0.256357,0.21583 0.59944,0.23983 0.911288,0 0.173685,-0.58356 0.586477,0.30378 0.911289,0 0.399771,-0.42619 0.675154,0.27122 0.911288,0"
           />
      </g>
      <g transform="matrix(0.96706042,0,0,0.73523781,31.132229,-78.096386)">
        <ellipse
           fill="currentColor" stroke="none"
           cx="52.086891"
           cy="163.76259"
           rx="0.64248776"
           ry="0.59949219" />
        <path
           fill="none" stroke="currentColor" stroke-width="0.46"
           d="m 53.171086,163.89301 c 0.295103,-0.12695 0.616669,0.12803 0.911288,0 0.07807,-0.57402 0.772096,-0.52023 0.911289,0 0.256357,0.21583 0.59944,0.23983 0.911288,0 0.173685,-0.58356 0.586477,0.30378 0.911289,0 0.399771,-0.42619 0.675154,0.27122 0.911288,0"
           />
      </g>
      <g transform="matrix(0.96706042,0,0,0.73523781,31.132229,-76.669821)">
        <ellipse
           fill="currentColor" stroke="none"
           cx="52.086891"
           cy="163.76259"
           rx="0.64248776"
           ry="0.59949219" />
        <path
           fill="none" stroke="currentColor" stroke-width="0.46"
           d="m 53.171086,163.89301 c 0.295103,-0.12695 0.616669,0.12803 0.911288,0 0.07807,-0.57402 0.772096,-0.52023 0.911289,0 0.256357,0.21583 0.59944,0.23983 0.911288,0 0.173685,-0.58356 0.586477,0.30378 0.911289,0 0.399771,-0.42619 0.675154,0.27122 0.911288,0"
           />
      </g>
      <g
         transform="matrix(0.96706042,0,0,0.73523781,31.132229,-75.243255)">
        <ellipse
           fill="currentColor" stroke="none"
           cx="52.086891"
           cy="163.76259"
           rx="0.64248776"
           ry="0.59949219" />
        <path
           fill="none" stroke="currentColor" stroke-width="0.46"
           d="m 53.171086,163.89301 c 0.295103,-0.12695 0.616669,0.12803 0.911288,0 0.07807,-0.57402 0.772096,-0.52023 0.911289,0 0.256357,0.21583 0.59944,0.23983 0.911288,0 0.173685,-0.58356 0.586477,0.30378 0.911289,0 0.399771,-0.42619 0.675154,0.27122 0.911288,0"
           />
      </g>
    </g>
  </g>
  </symbol>

  <symbol id="supply" viewBox="0 0 10 10">
  <g transform="translate(-101.07098,-144.08093)">
    <g transform="matrix(0.94833603,0,0,0.98738499,16.779074,107.53588)">
      <path
         fill="none" stroke="currentColor" stroke-width="0.83" stroke-linecap="round" stroke-linejoin="round"
         d="m 94.116491,37.813559 4.345954,8.337496 h -8.691907 z" />
      <rect
         fill="currentColor" stroke="currentColor" stroke-width="0.36"
         width="0.7724874"
         height="2.8954847"
         x="93.755615"
         y="40.646927"
         ry="0.4788695" />
      <ellipse
         fill="currentColor" stroke="currentColor" stroke-width="0.7"
         cx="94.141853"
         cy="44.688808"
         rx="0.2977742"
         ry="0.27166212" />
    </g>
  </g>
  </symbol>

  <symbol id="supplier" viewBox="0 0 10 10">
  <g
     transform="translate(-101.07098,-144.08093)">
    <g
       transform="matrix(0.89974977,0,0,0.93376543,3.5782951,109.82397)">
      <path
         fill="currentColor" stroke="currentColor" stroke-width="0.34"
         d="m 109.84267,40.010938 c -0.16942,0 -0.30592,0.145735 -0.30592,0.327111 v 5.927804 c 0,0.181384 0.1365,0.327112 0.30592,0.327112 h 8.42171 c 0.16943,0 0.30593,-0.145728 0.30593,-0.327112 v -5.927804 c 0,-0.181376 -0.1365,-0.327111 -0.30593,-0.327111 z m 0.46819,0.381372 h 1.01131 5.2e-4 c 0.0361,0 0.0569,0.03679 0.046,0.08216 l -0.44855,1.86862 c -0.0109,0.0454 -0.2681,0.440283 -0.67748,0.440283 -0.40937,0 -0.4765,-0.394913 -0.4656,-0.440283 l 0.44855,-1.86862 c 0.0109,-0.04544 0.0488,-0.08216 0.0853,-0.08216 z m 1.62781,0 h 1.01131 c 0.0365,0 0.0603,0.03679 0.0543,0.08216 l -0.26148,1.86862 c -0.006,0.0454 -0.22367,0.440283 -0.63304,0.440283 -0.40937,0 -0.51605,-0.394913 -0.51005,-0.440283 l 0.26149,-1.86862 c 0.006,-0.04544 0.041,-0.08216 0.0775,-0.08216 z m 1.64744,0 h 1.01131 c 0.0365,0 0.0662,0.03672 0.0662,0.08216 v 1.86862 c 0,0.04537 -0.16217,0.440283 -0.57154,0.440283 -0.40937,0 -0.57154,-0.39488 -0.57154,-0.440283 v -1.86862 c 0,-0.04537 0.0292,-0.08216 0.0656,-0.08216 z m 1.57097,0 h 1.01182 c 0.0365,0 0.0707,0.03672 0.077,0.08216 l 0.26148,1.86862 c 0.006,0.04537 -0.10016,0.440283 -0.50953,0.440283 -0.40937,0 -0.6272,-0.39488 -0.63355,-0.440283 l -0.26148,-1.86862 c -0.006,-0.04537 0.0178,-0.08216 0.0543,-0.08216 z m 1.62781,0 h 1.0113 c 0.0365,0 0.0744,0.03672 0.0853,0.08216 l 0.44907,1.86862 c 0.0109,0.04537 -0.0567,0.440283 -0.46612,0.440283 -0.40938,0 -0.66606,-0.39488 -0.67696,-0.440283 l -0.44907,-1.86862 c -0.0109,-0.04537 0.0104,-0.08216 0.0465,-0.08216 z m -6.4177,3.00085 h 1.98386 c 0.0414,0 0.0744,0.04719 0.0744,0.105937 v 1.121378 c 0,0.05874 -0.033,0.105937 -0.0744,0.105937 h -1.98386 c -0.0414,0 -0.0749,-0.04719 -0.0749,-0.105937 v -1.121378 c 0,-0.05874 0.0335,-0.105937 0.0749,-0.105937 z m 2.8112,0 h 1.98386 c 0.0414,0 0.0744,0.04719 0.0744,0.105937 v 1.121378 c 0,0.05874 -0.033,0.105937 -0.0744,0.105937 h -1.98386 c -0.0414,0 -0.0744,-0.04719 -0.0744,-0.105937 v -1.121378 c 0,-0.05874 0.033,-0.105937 0.0744,-0.105937 z m 2.82773,0.02377 h 1.71773 c 0.0358,0 0.0646,0.100233 0.0646,0.224276 v 2.366781 c 0,0.124042 -0.0287,0.224275 -0.0646,0.224275 h -1.71773 c -0.0358,0 -0.0646,-0.100233 -0.0646,-0.224275 v -2.366781 c 0,-0.124043 0.0287,-0.224276 0.0646,-0.224276 z" />
      <path
         fill="currentColor" stroke="currentColor" stroke-width="0.19"
         d="m 109.67989,37.491195 c -0.12156,0 -0.21962,0.124711 -0.21962,0.279569 v 1.567347 c 0,0.154858 0.0981,0.279569 0.21962,0.279569 h 8.74779 c 0.12156,0 0.21911,-0.124711 0.21911,-0.279569 v -1.567347 c 0,-0.154858 -0.0975,-0.279569 -0.21911,-0.279569 z m 0.8413,0.261999 c 0.0938,0 0.19024,0.0066 0.28938,0.02015 0.0991,0.01284 0.20147,0.03253 0.30748,0.05891 v 0.337964 c -0.0938,-0.03922 -0.18517,-0.06892 -0.2744,-0.08888 -0.0892,-0.01997 -0.17339,-0.02946 -0.2527,-0.02946 -0.10525,0 -0.18324,0.01321 -0.23358,0.04031 -0.0503,0.0271 -0.0755,0.06905 -0.0755,0.12609 0,0.04278 0.0166,0.07653 0.0501,0.100769 0.0343,0.02353 0.0963,0.04386 0.18552,0.06098 l 0.18758,0.03514 c 0.1899,0.03565 0.32507,0.09005 0.40515,0.162781 0.0801,0.07273 0.11989,0.176005 0.11989,0.310059 0,0.176123 -0.0558,0.307495 -0.16795,0.393774 -0.11135,0.08557 -0.28204,0.128158 -0.5116,0.128158 -0.10829,0 -0.21702,-0.0097 -0.32608,-0.02894 -0.10906,-0.01925 -0.21805,-0.04747 -0.32711,-0.08527 v -0.347783 c 0.10906,0.05419 0.21431,0.09518 0.31574,0.12299 0.1022,0.0271 0.20051,0.04082 0.29508,0.04082 0.0961,0 0.17007,-0.01501 0.22117,-0.04496 0.0511,-0.02995 0.0765,-0.07306 0.0765,-0.128674 0,-0.04991 -0.0176,-0.08814 -0.0527,-0.115239 -0.0343,-0.0271 -0.1035,-0.05147 -0.20722,-0.07286 l -0.17002,-0.03514 c -0.17083,-0.03423 -0.29637,-0.08894 -0.37568,-0.163815 -0.0786,-0.07487 -0.11782,-0.1759 -0.11782,-0.302823 0,-0.159011 0.055,-0.281337 0.16484,-0.366903 0.10982,-0.08557 0.26796,-0.128158 0.47388,-0.128158 z m 3.4742,0 c 0.27455,0 0.48934,0.07325 0.64492,0.220142 0.15558,0.146888 0.23358,0.349911 0.23358,0.608748 0,0.258125 -0.078,0.460827 -0.23358,0.607715 -0.15558,0.146889 -0.37037,0.220142 -0.64492,0.220142 -0.27379,0 -0.48909,-0.07325 -0.64544,-0.220142 -0.15558,-0.146888 -0.23306,-0.34959 -0.23306,-0.607715 0,-0.258837 0.0775,-0.46186 0.23306,-0.608748 0.15635,-0.146888 0.37165,-0.220142 0.64544,-0.220142 z m -2.58227,0.02894 h 1.57407 v 0.311092 h -0.56586 v 1.28571 h -0.4408 v -1.28571 h -0.56741 z m 3.79357,0 h 0.67282 c 0.22499,0 0.38955,0.03534 0.49403,0.105937 0.10525,0.07059 0.15813,0.18227 0.15813,0.334863 0,0.105532 -0.0278,0.192193 -0.0827,0.259933 -0.0541,0.06774 -0.13616,0.117257 -0.24598,0.149344 0.0602,0.01284 0.11395,0.04221 0.16123,0.08785 0.0481,0.04492 0.0964,0.113689 0.14521,0.205673 l 0.23926,0.453202 h -0.46922 l -0.20774,-0.396875 c -0.0419,-0.07986 -0.0847,-0.134063 -0.12816,-0.163298 -0.0427,-0.02923 -0.0999,-0.04393 -0.17156,-0.04393 h -0.12506 v 0.604098 h -0.44028 z m 1.80402,0 h 1.18856 v 0.311092 H 117.451 v 0.297657 h 0.70383 v 0.311092 H 117.451 v 0.365869 h 0.77359 v 0.311092 h -1.21388 z m -3.01532,0.269751 c -0.13422,0 -0.23866,0.04631 -0.31264,0.13901 -0.074,0.0927 -0.11059,0.22291 -0.11059,0.39119 0,0.167567 0.0366,0.297978 0.11059,0.390674 0.074,0.0927 0.17842,0.13901 0.31264,0.13901 0.13499,0 0.23918,-0.04631 0.31316,-0.13901 0.074,-0.0927 0.11111,-0.223107 0.11111,-0.390674 0,-0.16828 -0.0371,-0.298494 -0.11111,-0.39119 -0.074,-0.0927 -0.17817,-0.13901 -0.31316,-0.13901 z m 1.65158,0.02842 V 38.4901 h 0.18552 c 0.0923,0 0.15826,-0.01597 0.19792,-0.04806 0.0404,-0.03209 0.0605,-0.08469 0.0605,-0.15813 0,-0.07273 -0.02,-0.125205 -0.0605,-0.156579 -0.0397,-0.03138 -0.10564,-0.04703 -0.19792,-0.04703 z" />
    </g>
  </g>
  </symbol>


  <symbol id="order" viewBox="0 0 10 10">
  <g transform="translate(-101.07098,-144.08093)">
    <g transform="matrix(0.95540778,0,0,0.93717486,6.4517678,109.75951)">
      <ellipse
         fill="currentColor" stroke="currentColor" stroke-width="0.18"
         cx="107.17339"
         cy="45.971817"
         rx="0.77381545"
         ry="0.67772311" />
      <ellipse
         fill="currentColor" stroke="currentColor" stroke-width="0.11"
         cx="102.96817"
         cy="45.971817"
         rx="0.77381545"
         ry="0.67772311" />
      <path
         fill="none" stroke="currentColor" stroke-width="0.6" stroke-linecap="round" stroke-linejoin="round"
         d="m 108.52437,44.89217 h -6.80826 l -0.86683,-4.922196 -1.145811,-0.382194"
         />
      <path
         fill="none" stroke="currentColor" stroke-width="0.6" stroke-linecap="round" stroke-linejoin="round"
         d="m 101.95097,40.667482 h 6.58294 l -0.40493,3.38528 h -5.5459 z"
         />
      <path
         fill="none" stroke="currentColor" stroke-width="0.5" stroke-linecap="round" stroke-linejoin="round"
         d="m 102.47659,42.380337 h 5.5908"
         />
      <path
         fill="none" stroke="currentColor" stroke-width="0.5" stroke-linecap="round" stroke-linejoin="round"
         d="m 104.04134,40.746175 0.3771,3.175721"
         />
      <path
         fill="none" stroke="currentColor" stroke-width="0.5" stroke-linecap="round" stroke-linejoin="round"
         d="m 106.56693,40.79066 -0.18382,3.17572"
         />
      <path
         fill="none" stroke="currentColor" stroke-width="0.5" stroke-linecap="round" stroke-linejoin="round"
         d="m 102.59991,39.777499 1.38231,-0.775143 0.82262,1.125275 -0.82767,0.470324 -0.77471,0.01428 z" />
      <path
         fill="none" stroke="currentColor" stroke-width="0.5" stroke-linecap="round" stroke-linejoin="round"
         d="m 106.30697,38.468913 -1.01079,1.333769 1.01699,0.557588 0.95188,0.01705 0.74053,-0.989604 z m 0.29877,0.434953 c 0.25159,-0.0031 0.83951,0.377219 0.84191,0.604777 0.002,0.227558 -0.44442,0.640982 -0.75827,0.63518 -0.31385,-0.0058 -0.71415,-0.396811 -0.74444,-0.63518 -0.0303,-0.238369 0.40921,-0.601715 0.6608,-0.604777 z" />
      <path
         fill="none" stroke="currentColor" stroke-width="0.5" stroke-linecap="round" stroke-linejoin="round"
         d="m 104.22643,37.786945 0.45133,0.264279 0.47639,-0.130068 0.0677,-0.400977 0.26978,0.720514 -0.62555,0.811399 -0.38439,-0.572053 z" />
    </g>
  </g>
  </symbol>

  <use href="#order"        x="0" y="0" width="10" height="10" />
  <use href="#add"          x="10" y="0" width="10" height="10" />
  <use href="#article"      x="20" y="0" width="10" height="10" />
  <use href="#cancel"       x="30" y="0" width="10" height="10" />
  <use href="#category"     x="40" y="0" width="10" height="10" />
  <use href="#company"      x="50" y="0" width="10" height="10" />
  <use href="#create"       x="60" y="0" width="10" height="10" />
  <use href="#delete"       x="70" y="0" width="10" height="10" />
  <use href="#display"      x="80" y="0" width="10" height="10" />
  <use href="#edit"         x="90" y="0" width="10" height="10" />
  <use href="#equipment"    x="0" y="10" width="10" height="10" />
  <use href="#erase"        x="10" y="10" width="10" height="10" />
  <use href="#intervention" x="20" y="10" width="10" height="10" />
  <use href="#order"        x="30" y="10" width="10" height="10" />
  <use href="#remove"       x="40" y="10" width="10" height="10" />
  <use href="#section"      x="50" y="10" width="10" height="10" />
  <use href="#subcategory"  x="60" y="10" width="10" height="10" />
  <use href="#supplier"     x="70" y="10" width="10" height="10" />
  <use href="#supply"       x="80" y="10" width="10" height="10" />
  <use href="#unit"         x="90" y="10" width="10" height="10" />
  <use href="#user"         x="0" y="20" width="10" height="10" />
  <use href="#validate"     x="10" y="20" width="10" height="10" />
  <use href="#workorder"    x="20" y="20" width="10" height="10" />

</svg>

