<?xml version="1.0" encoding="UTF-8" standalone="no"?>
<!-- Comaint Logo -->
<!-- Created with Inkscape (http://www.inkscape.org/) -->

<svg
   width="50mm"
   height="50mm"
   viewBox="0 0 49.999999 50"
   version="1.1"
   id="svg22420"
   inkscape:version="1.2.2 (b0a8486541, 2022-12-01)"
   sodipodi:docname="logo-icon.svg"
   xmlns:inkscape="http://www.inkscape.org/namespaces/inkscape"
   xmlns:sodipodi="http://sodipodi.sourceforge.net/DTD/sodipodi-0.dtd"
   xmlns:xlink="http://www.w3.org/1999/xlink"
   xmlns="http://www.w3.org/2000/svg"
   xmlns:svg="http://www.w3.org/2000/svg">
  <sodipodi:namedview
     id="namedview22422"
     pagecolor="#ffffff"
     bordercolor="#666666"
     borderopacity="1.0"
     inkscape:showpageshadow="2"
     inkscape:pageopacity="0.0"
     inkscape:pagecheckerboard="0"
     inkscape:deskcolor="#d1d1d1"
     inkscape:document-units="mm"
     showgrid="false"
     inkscape:zoom="3.2051271"
     inkscape:cx="138.37205"
     inkscape:cy="70.824024"
     inkscape:window-width="1920"
     inkscape:window-height="1011"
     inkscape:window-x="0"
     inkscape:window-y="0"
     inkscape:window-maximized="1"
     inkscape:current-layer="layer1" />
  <defs
     id="defs22417">
    <linearGradient
       id="linearGradient2336"
       inkscape:swatch="solid">
      <stop
         style="stop-color:#ffffff;stop-opacity:1;"
         offset="0"
         id="stop2334" />
    </linearGradient>
    <linearGradient
       id="linearGradient2330"
       inkscape:swatch="solid">
      <stop
         style="stop-color:#000000;stop-opacity:1;"
         offset="0"
         id="stop2328" />
    </linearGradient>
    <linearGradient
       inkscape:collect="always"
       xlink:href="#linearGradient2330"
       id="linearGradient2332"
       x1="43.120995"
       y1="33.336506"
       x2="63.275318"
       y2="33.336506"
       gradientUnits="userSpaceOnUse" />
  </defs>
  <g
     inkscape:label="Calque 1"
     inkscape:groupmode="layer"
     id="layer1"
     transform="translate(-16.5128,-12.268024)">
    <g
       id="g2380"
       transform="translate(1.6858263,4.2639348)">
      <path
         id="path18781"
         style="fill:#f9f9f9;stroke:none;stroke-width:0.820936;stroke-linecap:butt;stroke-linejoin:miter;stroke-dasharray:none;stroke-opacity:1"
         d="m 23.799916,42.644304 c 1.071012,2.404319 6.665235,12.502383 15.643295,12.160512 9.631363,-0.06169 16.5441,-10.34802 17.841356,-12.257237"
         sodipodi:nodetypes="ccc" />
      <g
         id="g18737"
         transform="matrix(12.337431,0,0,12.341571,-617.66919,-2998.634)">
        <path
           id="path16077"
           style="fill:#000000;stroke:none;stroke-width:0.367042px;stroke-linecap:butt;stroke-linejoin:miter;stroke-opacity:1"
           d="m 51.403083,246.3946 h 0.614873 c 0,0 0.420935,0.98932 1.242619,0.98383 0.82169,-0.006 1.420797,-0.98135 1.420797,-0.98135 l -1.115293,0.0123 -0.497629,-0.73797 0.497629,-0.73799 1.115293,0.0122 c 0,0 -0.599107,-0.97533 -1.420797,-0.98135 -0.821684,-0.006 -1.242619,0.98386 -1.242619,0.98386 h -0.614873 z"
           sodipodi:nodetypes="cccccccccccc" />
        <path
           id="rect16334"
           style="opacity:0.98;fill:none;stroke:#ffffff;stroke-width:0.0286346;stroke-linecap:round;stroke-linejoin:round;paint-order:markers stroke fill"
           d="m 51.51585,246.05792 v 0.18304 h 0.627811 c 0,0 0.315733,0.9909 1.047741,0.986 0.732014,-0.006 1.186368,-0.6929 1.186368,-0.6929 l -0.993575,0.0108 -0.540793,-0.8742 0.603626,-0.86409 0.92619,0.0108 c 0,0 -0.406783,-0.70155 -1.138797,-0.70692 -0.732009,-0.006 -1.09076,0.97181 -1.09076,0.97181 H 51.51585 v 0.18921 h 0.25995 c 0.127631,0 0.163389,0.0502 0.163389,0.11265 v 0.56124 c 0,0.0624 -0.03576,0.11266 -0.163389,0.11266 z"
           sodipodi:nodetypes="ccccccccccccccsscc" />
      </g>
      <path
         id="path16079"
         style="fill:url(#linearGradient2332);fill-opacity:1;stroke:none;stroke-width:4.11595px;stroke-linecap:butt;stroke-linejoin:miter;stroke-opacity:1"
         d="m 48.701016,25.061042 -5.580021,8.275463 5.580021,8.275464 h 8.993766 l 5.580538,-8.275464 -5.580538,-8.275463 z m 4.496883,1.213879 a 6.8247352,7.0615893 0 0 1 6.824907,7.061584 6.8247352,7.0615893 0 0 1 -6.824907,7.061585 6.8247352,7.0615893 0 0 1 -6.824906,-7.061585 6.8247352,7.0615893 0 0 1 6.824906,-7.061584 z" />
      <path
         id="path2340"
         style="opacity:0.98;fill:#000000;fill-opacity:1;stroke-width:2.83923;stroke-linecap:round;stroke-linejoin:round;paint-order:markers stroke fill"
         d="m 53.197899,27.194245 a 6.0493624,6.1422414 0 0 0 -6.049243,6.14226 6.0493624,6.1422414 0 0 0 6.049243,6.142261 6.0493624,6.1422414 0 0 0 6.04976,-6.142261 6.0493624,6.1422414 0 0 0 -6.04976,-6.14226 z m 0,1.905827 a 4.0944157,4.2365135 0 0 1 4.094841,4.236433 4.0944157,4.2365135 0 0 1 -4.094841,4.236434 4.0944157,4.2365135 0 0 1 -4.094323,-4.236434 4.0944157,4.2365135 0 0 1 4.094323,-4.236433 z" />
    </g>
  </g>
</svg>
